<?xml version="1.0" encoding="UTF-8" standalone="no"?>
<!DOCTYPE svg PUBLIC "-//W3C//DTD SVG 1.1//EN" "http://www.w3.org/Graphics/SVG/1.1/DTD/svg11.dtd">
<svg xmlns:xl="http://www.w3.org/1999/xlink" version="1.1" xmlns="http://www.w3.org/2000/svg" xmlns:dc="http://purl.org/dc/elements/1.1/" viewBox="112.92525 81.83594 450 450" width="450" height="450">
  <defs/>
  <g id="Canvas_1" stroke-dasharray="none" fill="none" fill-opacity="1" stroke-opacity="1" stroke="none">
    <title>Canvas 1</title>
    <g id="Canvas_1_Layer_1">
      <title>Layer 1</title>
      <g id="Graphic_13">
        <rect x="112.92525" y="81.83594" width="450" height="450" fill="white"/>
      </g>
      <g id="Graphic_12">
        <path d="M 128.20732 347 C 126.61729 324.56184 134.39961 301.58394 151.55428 284.42927 L 151.55428 284.42927 L 281.9462 154.03734 C 313.34524 122.6383 364.25314 122.6383 395.65217 154.03734 L 526.0441 284.42927 C 541.23754 299.6227 549.07914 319.384 549.5689 339.29254 C 554.96035 312.41715 547.2381 283.43346 526.4022 262.59757 L 397.86807 134.06342 C 397.86807 134.06342 397.86807 134.06342 397.86807 134.06342 C 364.76257 100.95791 311.08794 100.95791 277.98243 134.06342 L 149.44829 262.59757 L 149.44829 262.59757 C 126.603 285.44285 119.52268 318.08323 128.20732 347 Z" fill="black"/>
      </g>
    </g>
  </g>
</svg>
